<mxfile host="app.diagrams.net" modified="2023-11-03T07:05:10.188Z" agent="Mozilla/5.0 (Windows NT 10.0; Win64; x64; rv:109.0) Gecko/20100101 Firefox/119.0" version="22.0.8" etag="VBQXy87x5nVz8i91I0Db" type="github">
  <diagram name="Page-1" id="zG5zKizvqUGSGyj7EHf8">
    <mxGraphModel>
      <root>
        <mxCell id="0" />
        <mxCell id="1" parent="0" />
      </root>
    </mxGraphModel>
  </diagram>
</mxfile>
